<svg width="128" height="128" viewBox="0 0 128 128" fill="none" xmlns="http://www.w3.org/2000/svg">
<g clip-path="url(#clip0_1403_2)">
<path d="M33.5371 87.0571C29.1188 87.0571 25.5371 90.4721 25.5371 94.6848C25.5371 98.8975 29.1188 102.312 33.5371 102.312H95.3665C99.7848 102.312 103.367 98.8975 103.367 94.6848C103.367 90.4721 99.7848 87.0571 95.3665 87.0571H33.5371Z" fill="black" stroke="black" stroke-width="9"/>
<path d="M37.3433 56.5454C32.925 56.5454 29.3433 59.9604 29.3433 64.1731C29.3433 68.3857 32.925 71.8008 37.3433 71.8008H78.4116C82.8298 71.8008 86.4116 68.3857 86.4116 64.1731C86.4116 59.9604 82.8298 56.5454 78.4116 56.5454H37.3433Z" fill="black" stroke="black" stroke-width="9"/>
<path d="M54.644 26.2094C50.2258 26.2094 46.644 29.6245 46.644 33.8371C46.644 38.0498 50.2258 41.4648 54.644 41.4648H87.0619C91.4801 41.4648 95.0619 38.0498 95.0619 33.8371C95.0619 29.6245 91.4801 26.2094 87.0619 26.2094H54.644Z" fill="black" stroke="black" stroke-width="9"/>
</g>
<defs>
<clipPath id="clip0_1403_2">
<rect width="128" height="128" fill="white"/>
</clipPath>
</defs>
</svg>
