<svg width="128" height="128" viewBox="0 0 128 128" fill="none" xmlns="http://www.w3.org/2000/svg">
<g clip-path="url(#clip0_1403_12)">
<path d="M33.5371 87.0532C29.1188 87.0532 25.5371 90.4682 25.5371 94.6809C25.5371 98.8936 29.1188 102.309 33.5371 102.309H95.3665C99.7848 102.309 103.367 98.8936 103.367 94.6809C103.367 90.4682 99.7848 87.0532 95.3665 87.0532H33.5371Z" fill="white" stroke="white" stroke-width="9"/>
<path d="M37.3433 56.5415C32.925 56.5415 29.3433 59.9565 29.3433 64.1692C29.3433 68.3818 32.925 71.7969 37.3433 71.7969H78.4116C82.8298 71.7969 86.4116 68.3818 86.4116 64.1692C86.4116 59.9565 82.8298 56.5415 78.4116 56.5415H37.3433Z" fill="white" stroke="white" stroke-width="9"/>
<path d="M54.644 26.2055C50.2258 26.2055 46.644 29.6206 46.644 33.8332C46.644 38.0459 50.2258 41.4609 54.644 41.4609H87.0619C91.4801 41.4609 95.0619 38.0459 95.0619 33.8332C95.0619 29.6206 91.4801 26.2055 87.0619 26.2055H54.644Z" fill="white" stroke="white" stroke-width="9"/>
</g>
<defs>
<clipPath id="clip0_1403_12">
<rect width="128" height="128" fill="white"/>
</clipPath>
</defs>
</svg>
