<svg xmlns:dc="http://purl.org/dc/elements/1.1/" xmlns:cc="http://creativecommons.org/ns#" xmlns:rdf="http://www.w3.org/1999/02/22-rdf-syntax-ns#" xmlns:svg="http://www.w3.org/2000/svg" xmlns="http://www.w3.org/2000/svg" xmlns:sodipodi="http://sodipodi.sourceforge.net/DTD/sodipodi-0.dtd" xmlns:inkscape="http://www.inkscape.org/namespaces/inkscape" version="1.1" x="0px" y="0px" viewBox="0 0 100 100"><g transform="translate(0,-952.36218)"><path style="text-indent:0;text-transform:none;direction:ltr;block-progression:tb;baseline-shift:baseline;color:#000000;enable-background:accumulate;" d="m 13.000002,965.36212 c -3.8434,0 -7,3.15659 -7,7 l 0,60.00008 c 0,3.8434 3.1566,7 7,7 l 74,0 c 3.843396,0 6.999996,-3.1566 6.999996,-7 l 0,-46.00008 c 0,-3.8434 -3.1566,-7 -6.999996,-7 l -40.9375,0 c -2.8747,-3.6604 -5.1518,-8.69763 -8.1875,-11.78125 -1.1784,-1.1787 -2.8413,-2.21875 -4.875,-2.21875 z m 0,4 20,0 c 0.7363,0 1.3176,0.28614 2.0625,1.03125 2.9889,3.74983 5.5039,7.8965 8.2813,12.0625 0.3584,0.54871 1.0008,0.90024 1.6562,0.90625 l 42,0 c 1.6966,0 3,1.3034 3,3 l 0,46.00008 c 0,1.6966 -1.3034,3 -3,3 l -74,0 c -1.6966,0 -3,-1.3034 -3,-3 l 0,-60.00008 c 0,-1.69661 1.3034,-3 3,-3 z" fill="#000000" fill-opacity="1" stroke="none" marker="none" visibility="visible" display="inline" overflow="visible"/></g></svg>